<svg xmlns="http://www.w3.org/2000/svg" viewBox="0 0 64 64" width="64" height="64" role="img" aria-label="Drylane">
  <title>Drylane</title>
  <rect width="64" height="64" rx="14" fill="#0c0d12"/>
  <circle cx="38.0" cy="32.0" r="1.60" fill="#6ea8fe" opacity="0.55"/>
  <circle cx="38.5" cy="34.4" r="1.67" fill="#6ea8fe" opacity="0.57"/>
  <circle cx="38.1" cy="37.1" r="1.75" fill="#6ea8fe" opacity="0.60"/>
  <circle cx="36.5" cy="39.6" r="1.82" fill="#6ea8fe" opacity="0.62"/>
  <circle cx="33.8" cy="41.6" r="1.89" fill="#6ea8fe" opacity="0.64"/>
  <circle cx="30.2" cy="42.6" r="1.97" fill="#6ea8fe" opacity="0.67"/>
  <circle cx="26.3" cy="42.2" r="2.04" fill="#6ea8fe" opacity="0.69"/>
  <circle cx="22.4" cy="40.2" r="2.12" fill="#6ea8fe" opacity="0.72"/>
  <circle cx="19.3" cy="36.8" r="2.19" fill="#6ea8fe" opacity="0.74"/>
  <circle cx="17.5" cy="32.2" r="2.26" fill="#6ea8fe" opacity="0.76"/>
  <circle cx="17.4" cy="27.0" r="2.34" fill="#6ea8fe" opacity="0.79"/>
  <circle cx="19.2" cy="21.7" r="2.41" fill="#6ea8fe" opacity="0.81"/>
  <circle cx="23.0" cy="17.2" r="2.48" fill="#6ea8fe" opacity="0.83"/>
  <circle cx="28.4" cy="14.0" r="2.56" fill="#6ea8fe" opacity="0.86"/>
  <circle cx="34.9" cy="12.9" r="2.63" fill="#6ea8fe" opacity="0.88"/>
  <circle cx="41.6" cy="14.2" r="2.71" fill="#6ea8fe" opacity="0.91"/>
  <circle cx="47.8" cy="17.9" r="2.78" fill="#6ea8fe" opacity="0.93"/>
  <circle cx="52.5" cy="23.8" r="2.85" fill="#6ea8fe" opacity="0.95"/>
  <circle cx="55.0" cy="31.2" r="2.93" fill="#6ea8fe" opacity="0.98"/>
  <circle cx="54.8" cy="39.4" r="3.00" fill="#6ea8fe" opacity="1.00"/>
  <circle cx="29.0" cy="37.2" r="1.60" fill="#6ea8fe" opacity="0.55"/>
  <circle cx="26.7" cy="36.5" r="1.67" fill="#6ea8fe" opacity="0.57"/>
  <circle cx="24.6" cy="34.7" r="1.75" fill="#6ea8fe" opacity="0.60"/>
  <circle cx="23.2" cy="32.0" r="1.82" fill="#6ea8fe" opacity="0.62"/>
  <circle cx="22.8" cy="28.7" r="1.89" fill="#6ea8fe" opacity="0.64"/>
  <circle cx="23.7" cy="25.2" r="1.97" fill="#6ea8fe" opacity="0.67"/>
  <circle cx="26.0" cy="21.9" r="2.04" fill="#6ea8fe" opacity="0.69"/>
  <circle cx="29.6" cy="19.6" r="2.12" fill="#6ea8fe" opacity="0.72"/>
  <circle cx="34.2" cy="18.6" r="2.19" fill="#6ea8fe" opacity="0.74"/>
  <circle cx="39.1" cy="19.3" r="2.26" fill="#6ea8fe" opacity="0.76"/>
  <circle cx="43.7" cy="21.8" r="2.34" fill="#6ea8fe" opacity="0.79"/>
  <circle cx="47.3" cy="26.1" r="2.41" fill="#6ea8fe" opacity="0.81"/>
  <circle cx="49.4" cy="31.6" r="2.48" fill="#6ea8fe" opacity="0.83"/>
  <circle cx="49.4" cy="37.9" r="2.56" fill="#6ea8fe" opacity="0.86"/>
  <circle cx="47.1" cy="44.0" r="2.63" fill="#6ea8fe" opacity="0.88"/>
  <circle cx="42.6" cy="49.2" r="2.71" fill="#6ea8fe" opacity="0.91"/>
  <circle cx="36.3" cy="52.7" r="2.78" fill="#6ea8fe" opacity="0.93"/>
  <circle cx="28.8" cy="53.9" r="2.85" fill="#6ea8fe" opacity="0.95"/>
  <circle cx="21.1" cy="52.3" r="2.93" fill="#6ea8fe" opacity="0.98"/>
  <circle cx="14.2" cy="48.1" r="3.00" fill="#6ea8fe" opacity="1.00"/>
  <circle cx="29.0" cy="26.8" r="1.60" fill="#6ea8fe" opacity="0.55"/>
  <circle cx="30.8" cy="25.2" r="1.67" fill="#6ea8fe" opacity="0.57"/>
  <circle cx="33.3" cy="24.2" r="1.75" fill="#6ea8fe" opacity="0.60"/>
  <circle cx="36.4" cy="24.3" r="1.82" fill="#6ea8fe" opacity="0.62"/>
  <circle cx="39.5" cy="25.7" r="1.89" fill="#6ea8fe" opacity="0.64"/>
  <circle cx="42.1" cy="28.2" r="1.97" fill="#6ea8fe" opacity="0.67"/>
  <circle cx="43.7" cy="31.9" r="2.04" fill="#6ea8fe" opacity="0.69"/>
  <circle cx="43.9" cy="36.2" r="2.12" fill="#6ea8fe" opacity="0.72"/>
  <circle cx="42.5" cy="40.6" r="2.19" fill="#6ea8fe" opacity="0.74"/>
  <circle cx="39.5" cy="44.5" r="2.26" fill="#6ea8fe" opacity="0.76"/>
  <circle cx="35.0" cy="47.2" r="2.34" fill="#6ea8fe" opacity="0.79"/>
  <circle cx="29.5" cy="48.2" r="2.41" fill="#6ea8fe" opacity="0.81"/>
  <circle cx="23.6" cy="47.2" r="2.48" fill="#6ea8fe" opacity="0.83"/>
  <circle cx="18.3" cy="44.1" r="2.56" fill="#6ea8fe" opacity="0.86"/>
  <circle cx="14.1" cy="39.1" r="2.63" fill="#6ea8fe" opacity="0.88"/>
  <circle cx="11.8" cy="32.6" r="2.71" fill="#6ea8fe" opacity="0.91"/>
  <circle cx="11.9" cy="25.4" r="2.78" fill="#6ea8fe" opacity="0.93"/>
  <circle cx="14.6" cy="18.3" r="2.85" fill="#6ea8fe" opacity="0.95"/>
  <circle cx="19.8" cy="12.4" r="2.93" fill="#6ea8fe" opacity="0.98"/>
  <circle cx="27.0" cy="8.5" r="3.00" fill="#6ea8fe" opacity="1.00"/>
  <circle cx="32.0" cy="32.0" r="4.00" fill="#e6efff" opacity="1.00"/>
</svg>
